<svg width="41" height="40" viewBox="0 0 41 40" fill="none" xmlns="http://www.w3.org/2000/svg">
<path d="M30.4078 13.4059C29.7418 13.6873 29.0432 13.8841 28.3283 13.9917C28.6608 13.9389 29.1358 13.3373 29.3311 13.0945C29.6328 12.7248 29.8636 12.3025 30.0119 11.849C30.0119 11.812 30.0383 11.7698 30.0119 11.7434C29.9949 11.7342 29.9759 11.7293 29.9565 11.7293C29.9372 11.7293 29.9181 11.7342 29.9011 11.7434C29.1301 12.1545 28.3111 12.4683 27.4628 12.6776C27.4331 12.6872 27.4012 12.6878 27.3711 12.6793C27.3411 12.6709 27.3142 12.6537 27.2939 12.6301C27.2271 12.5528 27.1548 12.4805 27.0775 12.4137C26.7263 12.1087 26.3268 11.8644 25.8953 11.6906C25.3221 11.456 24.703 11.3549 24.085 11.3951C23.4845 11.4387 22.8992 11.6039 22.3645 11.8806C21.8305 12.1622 21.3585 12.5481 20.9764 13.0153C20.5821 13.5023 20.2993 14.0698 20.1478 14.6778C20.0177 15.2533 20.0033 15.8489 20.1056 16.43C20.1056 16.525 20.1056 16.5409 20.0211 16.525C16.6698 16.0289 13.8884 14.8256 11.6348 12.2553C11.5345 12.1445 11.4817 12.1445 11.4026 12.2553C10.4156 13.7331 10.8748 16.1134 12.1256 17.2798C12.2945 17.4328 12.4634 17.5911 12.6534 17.7336C12.0887 17.6902 11.5382 17.536 11.0331 17.2798C10.9381 17.2164 10.8906 17.2798 10.8801 17.3642C10.8735 17.5248 10.8823 17.6856 10.9065 17.8445C11.0049 18.5981 11.3009 19.3124 11.7643 19.9148C12.2277 20.5173 12.8422 20.9865 13.5453 21.275C13.7151 21.3479 13.8919 21.4027 14.0731 21.4386C13.5515 21.541 13.0166 21.5571 12.4898 21.4861C12.3737 21.4861 12.3315 21.5231 12.3737 21.6339C13.0756 23.5339 14.5798 24.1039 15.7092 24.4258C15.8623 24.4522 16.01 24.4522 16.1631 24.4892C16.1631 24.4892 16.1631 24.4892 16.1631 24.5156C15.7884 25.0856 14.4901 25.5078 13.8884 25.7189C12.7799 26.1152 11.5987 26.2664 10.4262 26.1622C10.2415 26.1358 10.2045 26.1358 10.1517 26.1622C10.099 26.1886 10.1517 26.2414 10.2045 26.2889C10.442 26.4419 10.6795 26.5792 10.9276 26.7164C11.6616 27.1088 12.4369 27.4186 13.2392 27.64C17.3928 28.7853 22.0742 27.9461 25.1933 24.8428C27.6422 22.4097 28.5025 19.0373 28.5025 15.6912C28.5025 15.5592 28.6556 15.4906 28.7506 15.4167C29.383 14.9365 29.9429 14.3677 30.413 13.7278C30.4897 13.6339 30.539 13.5207 30.5555 13.4006C30.5239 13.3531 30.4869 13.3689 30.4078 13.4059Z" fill="#171717"/>
<path d="M20.327 0C16.4158 0 12.5923 1.15983 9.34021 3.33281C6.08811 5.5058 3.5534 8.59435 2.05662 12.2079C0.55984 15.8214 0.168212 19.7977 0.931263 23.6338C1.69431 27.4699 3.57778 30.9936 6.34347 33.7593C9.10915 36.525 12.6329 38.4085 16.469 39.1715C20.3051 39.9346 24.2813 39.5429 27.8949 38.0462C31.5084 36.5494 34.597 34.0147 36.77 30.7626C38.9429 27.5105 40.1028 23.687 40.1028 19.7757C40.0972 14.5326 38.0119 9.50582 34.3044 5.79835C30.597 2.09089 25.5702 0.00558822 20.327 0ZM20.327 37.0129C16.9166 37.0129 13.5827 36.0015 10.7471 34.1067C7.91148 32.2118 5.70148 29.5186 4.3966 26.3676C3.09172 23.2167 2.75057 19.7495 3.4163 16.4047C4.08203 13.0599 5.72473 9.98755 8.13666 7.57637C10.5486 5.16518 13.6214 3.52342 16.9664 2.85871C20.3115 2.194 23.7785 2.53622 26.9291 3.84206C30.0796 5.14791 32.7722 7.35873 34.6661 10.1949C36.5601 13.0311 37.5705 16.3653 37.5695 19.7757C37.5639 24.3465 35.7453 28.7284 32.5128 31.9599C29.2803 35.1915 24.8978 37.0087 20.327 37.0129Z" fill="#171717"/>
</svg>
