<svg width="202" height="44" viewBox="0 0 202 44" fill="none" xmlns="http://www.w3.org/2000/svg">
<path d="M111.62 15H114.56V27.5H121.88V30H111.62V15ZM122.979 27.08C122.979 26.44 123.119 25.8867 123.399 25.42C123.679 24.9533 124.085 24.58 124.619 24.3C125.165 24.0067 125.825 23.8267 126.599 23.76L130.099 23.42V22.72C130.099 22.3067 130.025 21.9733 129.879 21.72C129.732 21.4667 129.505 21.28 129.199 21.16C128.905 21.04 128.525 20.98 128.059 20.98C127.605 20.98 127.239 21.04 126.959 21.16C126.679 21.2667 126.465 21.4467 126.319 21.7C126.172 21.94 126.072 22.2667 126.019 22.68H123.379C123.392 21.88 123.579 21.2133 123.939 20.68C124.312 20.1333 124.845 19.72 125.539 19.44C126.232 19.1467 127.072 19 128.059 19C129.072 19 129.932 19.14 130.639 19.42C131.345 19.7 131.879 20.1067 132.239 20.64C132.612 21.16 132.799 21.8 132.799 22.56V30H130.219V28.5C130.139 28.6333 130.059 28.7533 129.979 28.86C129.605 29.3 129.139 29.6333 128.579 29.86C128.032 30.0867 127.399 30.2 126.679 30.2C125.919 30.2 125.259 30.08 124.699 29.84C124.139 29.5867 123.712 29.2267 123.419 28.76C123.125 28.2933 122.979 27.7333 122.979 27.08ZM130.099 25.08L127.399 25.4C126.825 25.4667 126.392 25.62 126.099 25.86C125.819 26.1 125.679 26.4267 125.679 26.84C125.679 27.2933 125.832 27.64 126.139 27.88C126.459 28.1067 126.919 28.22 127.519 28.22C128.079 28.22 128.545 28.12 128.919 27.92C129.305 27.72 129.599 27.4267 129.799 27.04C129.999 26.6533 130.099 26.1867 130.099 25.64V25.08ZM134.859 15H137.619V20.58C137.886 20.14 138.253 19.7867 138.719 19.52C139.333 19.1733 140.053 19 140.879 19C141.799 19 142.593 19.22 143.259 19.66C143.939 20.0867 144.459 20.72 144.819 21.56C145.179 22.4 145.359 23.4 145.359 24.56C145.359 26.3333 144.953 27.72 144.139 28.72C143.326 29.7067 142.206 30.2 140.779 30.2C139.979 30.2 139.279 30.04 138.679 29.72C138.146 29.4267 137.746 29.0133 137.479 28.48V30H134.859V15ZM142.559 24.58C142.559 23.8067 142.466 23.1733 142.279 22.68C142.106 22.1867 141.839 21.8267 141.479 21.6C141.119 21.36 140.653 21.24 140.079 21.24C139.506 21.24 139.033 21.36 138.659 21.6C138.286 21.84 138.006 22.2067 137.819 22.7C137.646 23.1933 137.559 23.8267 137.559 24.6C137.559 25.76 137.759 26.6133 138.159 27.16C138.573 27.6933 139.213 27.96 140.079 27.96C140.653 27.96 141.119 27.84 141.479 27.6C141.839 27.36 142.106 26.9933 142.279 26.5C142.466 25.9933 142.559 25.3533 142.559 24.58ZM151.904 15H154.844V27.5H162.164V30H151.904V15ZM163.05 24.6C163.05 23.3867 163.257 22.3667 163.67 21.54C164.083 20.7 164.683 20.0667 165.47 19.64C166.27 19.2133 167.237 19 168.37 19C169.503 19 170.463 19.2133 171.25 19.64C172.05 20.0667 172.657 20.7 173.07 21.54C173.483 22.3667 173.69 23.3867 173.69 24.6C173.69 25.8133 173.483 26.84 173.07 27.68C172.657 28.5067 172.05 29.1333 171.25 29.56C170.463 29.9867 169.503 30.2 168.37 30.2C167.237 30.2 166.27 29.9867 165.47 29.56C164.683 29.1333 164.083 28.5067 163.67 27.68C163.257 26.84 163.05 25.8133 163.05 24.6ZM170.89 24.6C170.89 23.7867 170.803 23.1267 170.63 22.62C170.457 22.1133 170.183 21.7467 169.81 21.52C169.437 21.28 168.95 21.16 168.35 21.16C167.763 21.16 167.283 21.28 166.91 21.52C166.55 21.7467 166.277 22.1133 166.09 22.62C165.917 23.1267 165.83 23.7867 165.83 24.6C165.83 25.4133 165.917 26.0733 166.09 26.58C166.277 27.0867 166.557 27.46 166.93 27.7C167.303 27.9267 167.783 28.04 168.37 28.04C168.957 28.04 169.437 27.9267 169.81 27.7C170.183 27.46 170.457 27.0867 170.63 26.58C170.803 26.0733 170.89 25.4133 170.89 24.6ZM181.997 19.2H184.757V30H181.997V28.44C181.717 28.96 181.343 29.3667 180.877 29.66C180.303 30.02 179.617 30.2 178.817 30.2C178.083 30.2 177.45 30.0467 176.917 29.74C176.383 29.4333 175.977 28.9933 175.697 28.42C175.417 27.8333 175.277 27.12 175.277 26.28V19.2H178.037V25.96C178.037 26.5733 178.177 27.0533 178.457 27.4C178.75 27.7467 179.223 27.92 179.877 27.92C180.357 27.92 180.757 27.82 181.077 27.62C181.397 27.4067 181.63 27.1067 181.777 26.72C181.923 26.3333 181.997 25.86 181.997 25.3V19.2Z" fill="white"/>
<path d="M89.9676 29.0627C89.9676 27.0657 89.1405 25.3122 87.7946 24.0945C87.7459 22.5196 87.1784 21.0908 86.2378 19.9867C86.7243 19.0613 87 17.9897 87 16.8531C87 16.155 86.9027 15.5055 86.7081 14.8723C87.1784 13.9631 87.4378 12.9077 87.4378 11.7875C87.4378 9.31956 86.1568 7.20886 84.2108 6.05609C83.5459 3.08487 80.9351 0.925461 77.7243 0.925461C77.1892 0.925461 76.6865 0.990406 76.2 1.08782C75.1784 0.438376 73.9459 0.0811808 72.6324 0.0811808C71.7081 0.0811808 70.8324 0.259779 70.0378 0.584502C69.2432 0.259779 68.3676 0.0811808 67.4432 0.0811808C66.5189 0.0811808 65.6757 0.259779 64.8973 0.568266C64.1189 0.243542 63.2595 0.0811808 62.3514 0.0811808C58.6216 0.0811808 55.7027 3.00369 55.7027 6.73801C55.7027 7.64723 55.8811 8.50775 56.1892 9.28709C55.8811 10.0664 55.7027 10.9269 55.7027 11.8362C55.7027 12.7454 55.8811 13.6059 56.1892 14.3852C55.8811 15.1646 55.7027 16.0251 55.7027 16.9343C55.7027 17.8435 55.8811 18.7041 56.1892 19.4834C55.8811 20.2627 55.7027 21.1232 55.7027 22.0325C55.7027 22.9417 55.8811 23.8022 56.1892 24.5815C55.8811 25.3609 55.7027 26.2214 55.7027 27.1306C55.7027 27.7638 55.8162 28.3483 55.9622 28.9166C55.6541 28.3483 55.2811 27.8288 54.827 27.3904C54.827 27.293 54.827 27.1793 54.827 27.0819C54.827 25.1498 54.0486 23.445 52.7838 22.2435C52.7838 22.1461 52.7838 22.0487 52.7838 21.9351C52.7838 20.0354 52.0216 18.3306 50.7892 17.1292C50.7892 17.048 50.7892 16.9668 50.7892 16.8694C50.7892 14.9697 50.027 13.2649 48.7946 12.0635C48.7946 11.9661 48.7946 11.8686 48.7946 11.755C48.7946 9.59557 47.8216 7.71218 46.2649 6.49446C46.1838 2.84133 43.2973 0 39.6162 0C35.9351 0 33.0486 2.84133 32.9676 6.49446C31.4108 7.69594 30.4378 9.59557 30.4378 11.755C30.4378 11.8524 30.4378 11.9661 30.4378 12.0635C29.1892 13.2649 28.4432 14.9535 28.4432 16.8694C28.4432 16.9506 28.4432 17.048 28.4432 17.1292C27.2108 18.3306 26.4486 20.0192 26.4486 21.9351C26.4486 22.0325 26.4486 22.1461 26.4486 22.2435C25.1838 23.445 24.4054 25.1661 24.4054 27.0819C24.4054 27.1793 24.4054 27.293 24.4054 27.3904C23.4973 28.2834 22.8324 29.4362 22.5568 30.7513C22.3297 30.7351 22.1027 30.6863 21.8757 30.6863C20.9676 30.6863 20.1081 30.8649 19.3297 31.1734C18.5514 30.8649 17.6919 30.6863 16.7838 30.6863C15.8757 30.6863 15.0162 30.8649 14.2378 31.1734C13.8811 31.0273 13.4919 30.9137 13.1027 30.8325C13.0216 30.4428 12.9081 30.0531 12.7622 29.6959C13.0865 28.9166 13.2486 28.0561 13.2486 27.1469C13.2486 26.2376 13.0865 25.3771 12.7622 24.5978C13.0865 23.8184 13.2486 22.9579 13.2486 22.0487C13.2486 21.1395 13.0865 20.279 12.7622 19.4996C13.0865 18.7203 13.2486 17.8598 13.2486 16.9506C13.2486 16.0413 13.0865 15.1808 12.7622 14.4015C13.0865 13.6221 13.2486 12.7616 13.2486 11.8524C13.2486 10.9432 13.0865 10.0827 12.7622 9.30332C13.0865 8.52398 13.2486 7.66347 13.2486 6.75424C13.2973 3.01993 10.3784 0.097417 6.64865 0.097417C2.91892 0.097417 0 3.01993 0 6.75424C0 7.66347 0.178378 8.52398 0.486486 9.30332C0.162162 10.0827 0 10.9432 0 11.8524C0 12.7616 0.178378 13.6221 0.486486 14.4015C0.162162 15.1808 0 16.0413 0 16.9506C0 17.8598 0.178378 18.7203 0.486486 19.4996C0.162162 20.279 0 21.1395 0 22.0487C0 22.9579 0.178378 23.8184 0.486486 24.5978C0.162162 25.3771 0 26.2376 0 27.1469C0 28.0561 0.178378 28.9166 0.486486 29.6959C0.162162 30.4753 0 31.3358 0 32.245C0 33.1542 0.178378 34.0148 0.486486 34.7941C0.162162 35.5734 0 36.4339 0 37.3432C0 41.0775 2.91892 44 6.64865 44C7.55676 44 8.41622 43.8214 9.19459 43.5129C9.97297 43.8214 10.8324 44 11.7405 44C12.6486 44 13.5081 43.8214 14.2865 43.5129C15.0649 43.8214 15.9243 44 16.8324 44C17.7405 44 18.6 43.8214 19.3784 43.5129C20.1568 43.8214 21.0162 44 21.9243 44C22.8324 44 23.6919 43.8214 24.4703 43.5129C25.2486 43.8214 26.1081 44 27.0162 44C27.0324 44 27.0649 44 27.0811 44C27.0973 44 27.1297 44 27.1459 44C30.8757 44 33.7946 41.0775 33.7946 37.3432C33.7946 37.2133 33.7946 37.0834 33.7946 36.9535C34.6865 36.0768 35.3351 34.924 35.6108 33.6413C36 33.7063 36.4054 33.755 36.827 33.755C37.8486 33.755 38.8054 33.5439 39.6649 33.138C40.5243 33.5277 41.4811 33.755 42.5027 33.755C42.9243 33.755 43.3297 33.7225 43.7189 33.6413C43.9946 34.9402 44.627 36.0768 45.5351 36.9535C45.5351 37.0834 45.5351 37.2133 45.5351 37.3432C45.5351 41.0775 48.4541 44 52.1838 44C54.2757 44 56.0757 43.0583 57.2919 41.597C58.5081 43.0583 60.3081 44 62.4 44C63.3081 44 64.1676 43.8214 64.9459 43.5129C65.7243 43.8214 66.5838 44 67.4919 44C68.4 44 69.2595 43.8214 70.0378 43.5129C70.8162 43.8214 71.6757 44 72.5838 44C73.4919 44 74.3514 43.8214 75.1297 43.5129C75.9081 43.8214 76.7676 44 77.6757 44C80.3514 44 82.6054 42.49 83.6757 40.2657C86.3351 39.4052 88.2162 36.9373 88.2162 33.9336C88.2162 33.8362 88.2162 33.7225 88.2162 33.6251C89.3189 32.4399 90 30.8325 90 29.0465L89.9676 29.0627Z" fill="white"/>
</svg>
