<svg width="40" height="40" viewBox="0 0 40 40" fill="none" xmlns="http://www.w3.org/2000/svg">
<path fill-rule="evenodd" clip-rule="evenodd" d="M17.1732 19.8392V29.5133C17.1746 29.5796 17.2019 29.6427 17.2493 29.689C17.2966 29.7354 17.3603 29.7614 17.4266 29.7614H21.0207C21.087 29.7614 21.1507 29.7354 21.198 29.689C21.2454 29.6427 21.2727 29.5796 21.2741 29.5133V19.6809H23.876C23.9397 19.6811 24.0011 19.6573 24.048 19.6143C24.095 19.5712 24.124 19.5121 24.1293 19.4486L24.3774 16.4878C24.3803 16.4528 24.3759 16.4176 24.3645 16.3844C24.3531 16.3512 24.3349 16.3207 24.3111 16.2949C24.2872 16.2691 24.2583 16.2485 24.2261 16.2345C24.1939 16.2204 24.1592 16.2132 24.124 16.2134H21.2741V14.1023C21.2734 13.9849 21.2959 13.8686 21.3405 13.7601C21.3851 13.6516 21.4508 13.553 21.5337 13.47C21.6167 13.387 21.7153 13.3214 21.8238 13.2768C21.9324 13.2322 22.0487 13.2096 22.166 13.2103H24.1715C24.2383 13.209 24.302 13.1819 24.3492 13.1346C24.3964 13.0874 24.4235 13.0238 24.4249 12.957V10.0278C24.4235 9.96157 24.3962 9.89848 24.3488 9.85211C24.3015 9.80574 24.2378 9.77977 24.1715 9.77979H20.7779C19.8219 9.77979 18.905 10.1596 18.229 10.8356C17.553 11.5116 17.1732 12.4285 17.1732 13.3845V16.2398H15.4052C15.338 16.2398 15.2736 16.2664 15.2261 16.314C15.1785 16.3615 15.1519 16.4259 15.1519 16.4931V19.4539C15.1532 19.5207 15.1803 19.5843 15.2275 19.6315C15.2748 19.6788 15.3384 19.7059 15.4052 19.7072H17.1996L17.1732 19.8392Z" fill="#171717"/>
<path d="M19.7758 0C15.8645 0 12.041 1.15983 8.78894 3.33281C5.53683 5.5058 3.00213 8.59435 1.50535 12.2079C0.00856887 15.8214 -0.383057 19.7977 0.379994 23.6338C1.14305 27.4699 3.0265 30.9936 5.79219 33.7593C8.55788 36.525 12.0816 38.4085 15.9177 39.1715C19.7538 39.9346 23.7301 39.5429 27.3436 38.0462C30.9571 36.5494 34.0457 34.0147 36.2187 30.7626C38.3917 27.5105 39.5515 23.687 39.5515 19.7757C39.5459 14.5326 37.4606 9.50582 33.7531 5.79835C30.0457 2.09089 25.0189 0.00558822 19.7758 0ZM37.0129 19.7757C37.0098 23.1855 35.9957 26.5178 34.099 29.3514C32.2022 32.1849 29.5079 34.3924 26.3567 35.6949C23.2055 36.9973 19.7388 37.3362 16.395 36.6687C13.0512 36.0012 9.98039 34.3572 7.57079 31.9447C5.16119 29.5321 3.52099 26.4593 2.85757 23.1147C2.19415 19.7701 2.53728 16.3038 3.84359 13.1542C5.1499 10.0046 7.36074 7.31299 10.1966 5.4197C13.0324 3.52641 16.366 2.51644 19.7758 2.51749C24.3465 2.52308 28.7284 4.34165 31.9599 7.57417C35.1915 10.8067 37.0087 15.1891 37.0129 19.7599V19.7757Z" fill="#171717"/>
</svg>
