<svg width="40" height="40" viewBox="0 0 40 40" fill="none" xmlns="http://www.w3.org/2000/svg">
<path d="M26.47 14.3396C26.47 14.5747 26.4002 14.8045 26.2695 14.9999C26.1388 15.1953 25.953 15.3475 25.7357 15.4372C25.5184 15.527 25.2794 15.5502 25.0489 15.5039C24.8184 15.4577 24.6068 15.344 24.4409 15.1774C24.2751 15.0108 24.1624 14.7987 24.1172 14.5681C24.0719 14.3374 24.0962 14.0984 24.1869 13.8815C24.2776 13.6646 24.4306 13.4795 24.6266 13.3497C24.8226 13.2198 25.0527 13.1511 25.2878 13.1521C25.4435 13.1521 25.5976 13.1829 25.7414 13.2426C25.8852 13.3024 26.0157 13.3899 26.1256 13.5003C26.2354 13.6106 26.3224 13.7416 26.3815 13.8856C26.4406 14.0296 26.4707 14.1839 26.47 14.3396ZM24.9975 19.6491C24.9975 20.6329 24.7059 21.5948 24.1594 22.413C23.613 23.2312 22.8364 23.8691 21.9276 24.2461C21.0188 24.6231 20.0186 24.7223 19.0535 24.5311C18.0884 24.3399 17.2015 23.867 16.5051 23.172C15.8086 22.477 15.3338 21.5912 15.1406 20.6265C14.9474 19.6617 15.0444 18.6614 15.4195 17.7518C15.7945 16.8422 16.4308 16.0642 17.2479 15.516C18.0649 14.9679 19.0261 14.6742 20.01 14.6721C20.6643 14.6714 21.3123 14.7996 21.917 15.0494C22.5218 15.2991 23.0714 15.6655 23.5345 16.1277C23.9976 16.5898 24.3652 17.1386 24.6162 17.7428C24.8672 18.3471 24.9968 18.9948 24.9975 19.6491ZM23.2083 19.6491C23.2083 19.0228 23.0226 18.4105 22.6747 17.8898C22.3267 17.369 21.8321 16.9631 21.2535 16.7234C20.6749 16.4838 20.0382 16.4211 19.4239 16.5433C18.8096 16.6654 18.2454 16.967 17.8025 17.4099C17.3597 17.8528 17.0581 18.417 16.9359 19.0313C16.8137 19.6455 16.8764 20.2823 17.1161 20.8609C17.3558 21.4395 17.7616 21.9341 18.2824 22.282C18.8031 22.63 19.4154 22.8157 20.0417 22.8157C20.8815 22.8157 21.687 22.4821 22.2808 21.8882C22.8747 21.2944 23.2083 20.4889 23.2083 19.6491ZM30.0694 15.6485C30.0694 14.0388 29.43 12.495 28.2917 11.3568C27.1535 10.2186 25.6097 9.5791 24 9.5791H15.7403C14.1306 9.5791 12.5868 10.2186 11.4486 11.3568C10.3103 12.495 9.6709 14.0388 9.6709 15.6485V23.9346C9.6709 25.5443 10.3103 27.0881 11.4486 28.2263C12.5868 29.3646 14.1306 30.004 15.7403 30.004H24.0211C25.6308 30.004 27.1746 29.3646 28.3128 28.2263C29.4511 27.0881 30.0905 25.5443 30.0905 23.9346L30.0694 15.6485ZM28.0797 23.8396C28.0797 24.9454 27.6404 26.0059 26.8585 26.7878C26.0766 27.5697 25.0161 28.009 23.9103 28.009H15.83C14.7242 28.009 13.6637 27.5697 12.8818 26.7878C12.0999 26.0059 11.6606 24.9454 11.6606 23.8396V15.7435C11.6606 14.6377 12.0999 13.5772 12.8818 12.7953C13.6637 12.0134 14.7242 11.5741 15.83 11.5741H23.9314C25.0372 11.5741 26.0977 12.0134 26.8796 12.7953C27.6615 13.5772 28.1008 14.6377 28.1008 15.7435L28.0797 23.8396Z" fill="#171717"/>
<path d="M19.8788 0C15.9675 0 12.1441 1.15983 8.89196 3.33281C5.63986 5.5058 3.10516 8.59435 1.60838 12.2079C0.111598 15.8214 -0.280031 19.7977 0.483021 23.6338C1.24607 27.4699 3.12953 30.9936 5.89522 33.7593C8.6609 36.525 12.1846 38.4085 16.0207 39.1715C19.8569 39.9346 23.8331 39.5429 27.4466 38.0462C31.0602 36.5494 34.1487 34.0147 36.3217 30.7626C38.4947 27.5105 39.6545 23.687 39.6545 19.7757C39.6489 14.5326 37.5636 9.50582 33.8562 5.79835C30.1487 2.09089 25.1219 0.00558822 19.8788 0ZM19.8788 37.0182C16.4686 37.0182 13.1349 36.0069 10.2994 34.1123C7.4639 32.2177 5.25391 29.5248 3.94887 26.3741C2.64383 23.2235 2.30236 19.7566 2.96766 16.4119C3.63297 13.0672 5.27516 9.99491 7.68656 7.58351C10.098 5.17211 13.1703 3.52993 16.515 2.86463C19.8597 2.19933 23.3265 2.54079 26.4772 3.84582C29.6278 5.15086 32.3207 7.36087 34.2153 10.1964C36.11 13.0319 37.1212 16.3655 37.1212 19.7757C37.1212 24.3502 35.3051 28.7375 32.072 31.9736C28.8389 35.2097 24.4532 37.0298 19.8788 37.034V37.0182Z" fill="#171717"/>
</svg>
