<?xml version="1.0" encoding="UTF-8"?>
<svg id="Layer_2" data-name="Layer 2" xmlns="http://www.w3.org/2000/svg" viewBox="0 0 498.73 229.73">
  <defs>
    <style>
      .cls-1 {
        stroke-width: 0px;
      }
    </style>
  </defs>
  <g id="logo_s" data-name="logo&amp;apos;s">
    <path class="cls-1" d="m498.73,151.61c0-10.41-4.63-19.61-12.06-25.93-.27-8.25-3.44-15.69-8.6-21.46,2.68-4.85,4.2-10.41,4.2-16.36,0-3.61-.55-7.07-1.6-10.32,2.6-4.79,4.05-10.26,4.05-16.11,0-12.9-7.1-23.95-17.87-29.96-3.73-15.55-18.18-26.83-35.92-26.83-2.93,0-5.75.31-8.45.89-5.69-3.36-12.47-5.29-19.79-5.29-5.14,0-9.97.95-14.37,2.67-4.4-1.72-9.25-2.67-14.37-2.67s-9.81.91-14.12,2.57c-4.34-1.66-9.09-2.57-14.12-2.57-20.65,0-36.85,15.28-36.85,34.77,0,4.75.96,9.25,2.7,13.33-1.74,4.1-2.7,8.6-2.7,13.33s.96,9.25,2.7,13.33c-1.74,4.1-2.7,8.6-2.7,13.33s.96,9.25,2.7,13.33c-1.74,4.1-2.7,8.58-2.7,13.33s.96,9.25,2.7,13.33c-1.74,4.1-2.7,8.58-2.7,13.33,0,2.88.36,5.67,1.02,8.32-1.63-2.57-3.6-4.91-5.85-6.97.02-.52.04-1.06.04-1.58,0-10.06-4.32-19.01-11.34-25.31.02-.52.04-1.04.04-1.58,0-9.95-4.22-18.8-11.07-25.08.02-.44.02-.89.02-1.35,0-9.95-4.22-18.8-11.09-25.08.02-.52.04-1.04.04-1.58,0-11.28-5.42-21.15-14-27.47-.45-19.11-16.48-33.96-36.85-33.96s-36.4,14.86-36.82,33.96c-8.6,6.32-14.02,16.19-14.02,27.47,0,.54.02,1.06.04,1.58-6.88,6.28-11.09,15.13-11.09,25.08,0,.46,0,.91.02,1.35-6.86,6.28-11.07,15.13-11.07,25.08,0,.54.02,1.06.04,1.58-7.02,6.3-11.34,15.24-11.34,25.31,0,.52.02,1.06.04,1.58-5.04,4.6-8.64,10.59-10.21,17.37-1.25-.12-2.51-.18-3.8-.18-5.02,0-9.78.91-14.12,2.55-4.32-1.64-9.09-2.55-14.12-2.55s-9.78.91-14.12,2.55c-2.01-.75-4.11-1.37-6.3-1.8-.47-2.07-1.1-4.06-1.92-5.97,1.76-4.08,2.7-8.58,2.7-13.33s-.94-9.23-2.7-13.33c1.76-4.08,2.7-8.58,2.7-13.33s-.94-9.23-2.7-13.33c1.76-4.08,2.7-8.58,2.7-13.33s-.94-9.23-2.7-13.33c1.76-4.08,2.7-8.58,2.7-13.33s-.94-9.23-2.7-13.33c1.76-4.08,2.7-8.58,2.7-13.33C73.69,15.51,57.52.23,36.85.23S0,15.51,0,35c0,4.75.96,9.25,2.72,13.33-1.76,4.1-2.72,8.6-2.72,13.33s.96,9.25,2.72,13.33c-1.76,4.1-2.72,8.6-2.72,13.33s.96,9.25,2.72,13.33c-1.76,4.1-2.72,8.58-2.72,13.33s.96,9.25,2.72,13.33c-1.76,4.1-2.72,8.58-2.72,13.33s.96,9.25,2.72,13.33c-1.76,4.1-2.72,8.58-2.72,13.33s.96,9.25,2.72,13.33c-1.76,4.1-2.72,8.58-2.72,13.33,0,19.49,16.19,34.77,36.85,34.77,5.04,0,9.8-.91,14.12-2.55,4.34,1.64,9.11,2.55,14.12,2.55s9.81-.91,14.12-2.55c4.34,1.64,9.11,2.55,14.12,2.55s9.81-.91,14.12-2.55c4.34,1.64,9.11,2.55,14.12,2.55s9.8-.91,14.12-2.55c4.34,1.64,9.11,2.55,14.12,2.55.12,0,.23,0,.35,0,.12,0,.23,0,.35,0,20.67,0,36.85-15.28,36.85-34.77,0-.68-.02-1.35-.06-2.01,4.95-4.62,8.52-10.57,10.03-17.33,2.19.37,4.42.56,6.73.56,5.65,0,10.97-1.14,15.72-3.21,4.75,2.07,10.07,3.21,15.72,3.21,2.31,0,4.56-.19,6.73-.56,1.54,6.76,5.08,12.71,10.03,17.33-.04.66-.06,1.33-.06,2.01,0,19.49,16.19,34.77,36.85,34.77,11.49,0,21.6-4.74,28.31-12.29,6.71,7.56,16.82,12.29,28.31,12.29,5.04,0,9.78-.91,14.12-2.55,4.32,1.64,9.09,2.55,14.12,2.55s9.78-.91,14.12-2.55c4.32,1.64,9.09,2.55,14.12,2.55s9.78-.91,14.12-2.55c4.32,1.64,9.09,2.55,14.12,2.55,14.84,0,27.37-7.88,33.26-19.55,14.78-4.5,25.2-17.43,25.2-33.07,0-.54-.02-1.06-.04-1.58,6.14-6.2,9.87-14.57,9.87-23.92Z"/>
  </g>
</svg>