<?xml version="1.0" encoding="UTF-8"?>
<svg id="Layer_2" data-name="Layer 2" xmlns="http://www.w3.org/2000/svg" viewBox="0 0 540.95 120">
  <defs>
    <style>
      .cls-1 {
        stroke-width: 0px;
      }
    </style>
  </defs>
  <g id="logo_s" data-name="logo&amp;apos;s">
    <g>
      <g>
        <path class="cls-1" d="m289.69,34.07h10.35v41.55h25.78v8.31h-36.14v-49.86Z"/>
        <path class="cls-1" d="m328.65,74.22c0-2.12.49-3.96,1.48-5.51.99-1.55,2.43-2.8,4.33-3.76,1.9-.95,4.21-1.54,6.94-1.76l12.33-1.13v-2.33c0-1.37-.26-2.48-.77-3.32-.52-.84-1.3-1.46-2.36-1.86s-2.41-.6-4.05-.6-2.89.19-3.87.56-1.74.98-2.25,1.8c-.52.82-.87,1.92-1.06,3.29h-9.3c.05-2.66.72-4.89,2.01-6.68,1.29-1.8,3.16-3.17,5.6-4.12,2.44-.95,5.4-1.43,8.88-1.43s6.6.47,9.09,1.4c2.49.93,4.38,2.27,5.67,4.02,1.29,1.75,1.94,3.89,1.94,6.41v24.73h-9.08v-4.99c-.28.44-.56.84-.85,1.19-1.32,1.46-2.95,2.57-4.9,3.32-1.95.75-4.19,1.13-6.73,1.13-2.68,0-5-.41-6.97-1.23-1.97-.82-3.48-2-4.51-3.55-1.03-1.55-1.55-3.41-1.55-5.59Zm25.08-6.65l-9.51,1.06c-2.02.23-3.53.73-4.54,1.53-1.01.8-1.52,1.89-1.52,3.26,0,1.51.55,2.65,1.66,3.42s2.71,1.16,4.82,1.16c1.97,0,3.63-.33,4.97-1,1.34-.67,2.36-1.64,3.06-2.93.71-1.29,1.06-2.83,1.06-4.65v-1.87Z"/>
        <path class="cls-1" d="m369.43,34.07h9.72v18.54c.94-1.46,2.23-2.64,3.87-3.52,2.16-1.15,4.7-1.73,7.61-1.73,3.24,0,6.05.72,8.42,2.16,2.37,1.44,4.19,3.56,5.46,6.35,1.27,2.79,1.9,6.12,1.9,9.97,0,5.89-1.43,10.49-4.3,13.79-2.86,3.3-6.81,4.96-11.83,4.96-2.82,0-5.28-.53-7.39-1.6-1.88-.97-3.29-2.35-4.23-4.12v5.05h-9.23v-49.86Zm27.12,31.84c0-2.57-.32-4.67-.95-6.31-.64-1.64-1.58-2.85-2.85-3.62s-2.91-1.16-4.93-1.16-3.69.4-5,1.2c-1.31.8-2.29,2.02-2.92,3.66-.63,1.64-.95,3.74-.95,6.31,0,3.86.72,6.68,2.15,8.47,1.43,1.8,3.67,2.69,6.73,2.69,2.02,0,3.66-.4,4.93-1.19,1.27-.8,2.22-2.03,2.85-3.69.63-1.66.95-3.78.95-6.35Z"/>
        <path class="cls-1" d="m427.33,34.07h10.35v41.55h25.78v8.31h-36.14v-49.86Z"/>
        <path class="cls-1" d="m465.58,65.98c0-4.03.73-7.44,2.18-10.21s3.58-4.86,6.37-6.28c2.8-1.42,6.19-2.13,10.18-2.13s7.39.71,10.18,2.13c2.8,1.42,4.92,3.51,6.38,6.28,1.45,2.77,2.18,6.17,2.18,10.21s-.73,7.44-2.18,10.21c-1.46,2.77-3.58,4.86-6.38,6.28-2.79,1.42-6.19,2.13-10.18,2.13s-7.38-.71-10.18-2.13c-2.79-1.42-4.92-3.51-6.37-6.28s-2.18-6.17-2.18-10.21Zm27.61,0c0-2.7-.3-4.9-.91-6.58-.61-1.68-1.58-2.91-2.89-3.69s-3.02-1.16-5.11-1.16-3.78.39-5.07,1.16-2.25,2-2.89,3.69c-.64,1.68-.95,3.88-.95,6.58s.32,4.89.95,6.58c.63,1.69,1.61,2.92,2.92,3.69,1.32.77,3.01,1.16,5.07,1.16s3.76-.39,5.07-1.16,2.28-2,2.89-3.69c.61-1.68.91-3.87.91-6.58Z"/>
        <path class="cls-1" d="m531.23,48.04h9.72v35.9h-9.72v-5.18c-.99,1.73-2.3,3.08-3.95,4.06-2.02,1.19-4.44,1.8-7.25,1.8-2.58,0-4.81-.51-6.69-1.53-1.88-1.02-3.31-2.49-4.3-4.42-.99-1.93-1.48-4.29-1.48-7.08v-23.53h9.72v22.47c0,2.04.5,3.64,1.51,4.79,1.01,1.16,2.67,1.73,4.97,1.73,1.69,0,3.1-.35,4.23-1.03,1.13-.68,1.95-1.67,2.47-2.96.52-1.29.77-2.86.77-4.72v-20.27Z"/>
      </g>
      <path class="cls-1" d="m260.51,79.19c0-5.44-2.42-10.24-6.3-13.54-.14-4.31-1.8-8.19-4.49-11.21,1.4-2.53,2.19-5.44,2.19-8.55,0-1.89-.29-3.69-.83-5.39,1.36-2.5,2.12-5.36,2.12-8.42,0-6.74-3.71-12.51-9.33-15.65-1.95-8.12-9.49-14.02-18.76-14.02-1.53,0-3,.16-4.42.46-2.97-1.76-6.51-2.76-10.34-2.76-2.68,0-5.21.49-7.51,1.39-2.3-.9-4.83-1.39-7.51-1.39s-5.12.47-7.38,1.34c-2.27-.87-4.75-1.34-7.38-1.34-10.79,0-19.25,7.98-19.25,18.16,0,2.48.5,4.83,1.41,6.96-.91,2.14-1.41,4.49-1.41,6.96s.5,4.83,1.41,6.96c-.91,2.14-1.41,4.49-1.41,6.96s.5,4.83,1.41,6.96c-.91,2.14-1.41,4.48-1.41,6.96s.5,4.83,1.41,6.96c-.91,2.14-1.41,4.48-1.41,6.96,0,1.54.22,3.03.58,4.45-.86-1.38-1.9-2.64-3.1-3.74.01-.27.02-.56.02-.83,0-5.26-2.26-9.93-5.92-13.22.01-.27.02-.54.02-.83,0-5.2-2.2-9.82-5.78-13.1.01-.23.01-.46.01-.71,0-5.2-2.2-9.82-5.8-13.1.01-.27.02-.54.02-.83,0-5.89-2.83-11.05-7.31-14.35-.24-9.98-8.61-17.74-19.25-17.74s-19.01,7.76-19.24,17.74c-4.49,3.3-7.32,8.46-7.32,14.35,0,.28.01.56.02.83-3.59,3.28-5.79,7.9-5.79,13.1,0,.24,0,.47.01.71-3.58,3.28-5.78,7.9-5.78,13.1,0,.28.01.55.02.83-3.67,3.29-5.92,7.96-5.92,13.22,0,.27.01.55.02.83-2.63,2.4-4.51,5.53-5.33,9.07-.65-.06-1.32-.09-1.99-.09-2.62,0-5.11.47-7.38,1.33-2.26-.86-4.75-1.33-7.38-1.33s-5.11.47-7.38,1.33c-1.05-.39-2.15-.72-3.29-.94-.25-1.08-.58-2.12-1.01-3.12.92-2.13,1.41-4.48,1.41-6.96s-.49-4.82-1.41-6.96c.92-2.13,1.41-4.48,1.41-6.96s-.49-4.82-1.41-6.96c.92-2.13,1.41-4.48,1.41-6.96s-.49-4.82-1.41-6.96c.92-2.13,1.41-4.48,1.41-6.96s-.49-4.82-1.41-6.96c.92-2.13,1.41-4.48,1.41-6.96C38.49,8.1,30.04.12,19.25.12S0,8.1,0,18.28c0,2.48.5,4.83,1.42,6.96-.92,2.14-1.42,4.49-1.42,6.96s.5,4.83,1.42,6.96c-.92,2.14-1.42,4.49-1.42,6.96s.5,4.83,1.42,6.96c-.92,2.14-1.42,4.48-1.42,6.96s.5,4.83,1.42,6.96c-.92,2.14-1.42,4.48-1.42,6.96s.5,4.83,1.42,6.96c-.92,2.14-1.42,4.48-1.42,6.96s.5,4.83,1.42,6.96c-.92,2.14-1.42,4.48-1.42,6.96,0,10.18,8.46,18.16,19.25,18.16,2.63,0,5.12-.47,7.38-1.33,2.27.86,4.76,1.33,7.38,1.33s5.12-.47,7.38-1.33c2.27.86,4.76,1.33,7.38,1.33s5.12-.47,7.38-1.33c2.27.86,4.76,1.33,7.38,1.33s5.12-.47,7.38-1.33c2.27.86,4.76,1.33,7.38,1.33.06,0,.12,0,.18,0,.06,0,.12,0,.18,0,10.8,0,19.25-7.98,19.25-18.16,0-.35-.01-.71-.03-1.05,2.59-2.41,4.45-5.52,5.24-9.05,1.14.19,2.31.29,3.52.29,2.95,0,5.73-.6,8.21-1.68,2.48,1.08,5.26,1.68,8.21,1.68,1.21,0,2.38-.1,3.52-.29.8,3.53,2.65,6.64,5.24,9.05-.02.34-.03.7-.03,1.05,0,10.18,8.46,18.16,19.25,18.16,6.01,0,11.28-2.48,14.79-6.43,3.5,3.95,8.78,6.43,14.79,6.43,2.63,0,5.11-.47,7.38-1.33,2.26.86,4.75,1.33,7.38,1.33s5.11-.47,7.38-1.33c2.26.86,4.75,1.33,7.38,1.33s5.11-.47,7.38-1.33c2.26.86,4.75,1.33,7.38,1.33,7.75,0,14.3-4.12,17.38-10.21,7.72-2.35,13.16-9.1,13.16-17.28,0-.28-.01-.55-.02-.83,3.21-3.24,5.15-7.61,5.15-12.49Z"/>
    </g>
  </g>
</svg>