<svg width="41" height="40" viewBox="0 0 41 40" fill="none" xmlns="http://www.w3.org/2000/svg">
<path d="M10.5503 24.9743V24.6734C10.6637 24.5183 10.8282 24.4081 11.0147 24.3621C12.6403 24.0401 13.7222 23.0057 14.5403 21.6493C15.2317 20.504 15.1208 20.2454 13.8542 19.7968C13.7803 19.7968 13.7064 19.7493 13.6325 19.7176C13.3539 19.6184 13.0936 19.474 12.862 19.2901C12.292 18.794 12.6297 18.0815 13.3 17.9232C13.7908 17.8071 14.2131 18.1185 14.688 18.1765C15.01 18.2187 15.1367 18.1132 15.0944 17.7754C15.0048 16.8987 14.9871 16.0161 15.0417 15.1365C15.0613 14.3645 15.2826 13.611 15.6835 12.9509C16.0844 12.2908 16.6509 11.747 17.3269 11.3735C18.2543 10.7883 19.3284 10.4778 20.425 10.4778C21.5215 10.4778 22.5956 10.7883 23.523 11.3735C24.1479 11.7163 24.6809 12.2047 25.0769 12.7973C25.4728 13.3898 25.7201 14.0692 25.7977 14.7776C25.8953 15.7639 25.8953 16.7575 25.7977 17.7437C25.7608 18.1712 25.8505 18.2715 26.2727 18.1501C26.8005 18.0287 27.2438 17.7543 27.7927 17.9971C27.9411 18.0553 28.0697 18.1549 28.1632 18.284C28.2568 18.4131 28.3113 18.5663 28.3205 18.7254C28.2982 18.9458 28.1901 19.1486 28.0197 19.2901C27.7506 19.4941 27.4491 19.6511 27.1277 19.7546C26.8902 19.8548 26.6422 19.9287 26.4099 20.0343C25.9297 20.2612 25.7924 20.5621 26.0194 21.0318C26.7952 22.6732 27.9352 23.9187 29.7824 24.3515C29.9924 24.3925 30.1801 24.5089 30.3102 24.6787V24.9901C30.132 25.3217 29.8306 25.57 29.471 25.6815C29.1181 25.842 28.7424 25.947 28.3574 25.9929C28.2437 25.9865 28.1298 26.003 28.0225 26.0415C27.9153 26.08 27.8169 26.1397 27.7332 26.217C27.6495 26.2943 27.5822 26.3877 27.5353 26.4915C27.4884 26.5954 27.4629 26.7076 27.4602 26.8215C27.3811 27.3493 27.2227 27.4231 26.6844 27.3809C26.5549 27.3693 26.4262 27.3499 26.2991 27.3229C25.7971 27.2013 25.2741 27.1942 24.7689 27.302C24.2637 27.4098 23.7892 27.6297 23.3805 27.9456C23.2112 28.078 23.0351 28.2013 22.8527 28.3151C22.1985 28.7955 21.4151 29.0685 20.604 29.0986C19.7928 29.1287 18.9914 28.9146 18.3033 28.484C17.8811 28.2412 17.48 27.9562 17.0736 27.687C16.7367 27.4714 16.3565 27.3327 15.96 27.2806C15.3313 27.2372 14.6997 27.2762 14.0811 27.3968C13.7592 27.4337 13.4531 27.3387 13.4319 27.0115C13.3897 26.2093 12.9042 26.014 12.2286 25.9559C11.911 25.9029 11.6021 25.807 11.3103 25.6709C10.9757 25.5468 10.703 25.2968 10.5503 24.9743Z" fill="#171717"/>
<path d="M20.4301 0C16.5188 0 12.6953 1.15983 9.44323 3.33281C6.19113 5.5058 3.65643 8.59435 2.15965 12.2079C0.662867 15.8214 0.271239 19.7977 1.03429 23.6338C1.79734 27.4699 3.6808 30.9936 6.44649 33.7593C9.21217 36.525 12.7359 38.4085 16.572 39.1715C20.4081 39.9346 24.3844 39.5429 27.9979 38.0462C31.6114 36.5494 34.7 34.0147 36.873 30.7626C39.046 27.5105 40.2058 23.687 40.2058 19.7757C40.2002 14.5326 38.1149 9.50582 34.4074 5.79835C30.7 2.09089 25.6732 0.00558822 20.4301 0ZM20.4301 37.0182C17.0198 37.0182 13.6862 36.0069 10.8507 34.1123C8.01517 32.2177 5.80517 29.5248 4.50014 26.3741C3.1951 23.2235 2.85363 19.7566 3.51893 16.4119C4.18424 13.0672 5.82643 9.99491 8.23783 7.58351C10.6492 5.17211 13.7215 3.52993 17.0662 2.86463C20.4109 2.19933 23.8778 2.54079 27.0284 3.84582C30.1791 5.15086 32.872 7.36087 34.7666 10.1964C36.6612 13.0319 37.6725 16.3655 37.6725 19.7757C37.6683 24.3474 35.8503 28.7307 32.6177 31.9634C29.385 35.196 25.0017 37.014 20.4301 37.0182Z" fill="#171717"/>
</svg>
